<svg width="32" height="26" viewBox="0 0 32 26" fill="none" xmlns="http://www.w3.org/2000/svg">
<defs>
    <style type="text/css"><![CDATA[
       #discord-icon {
         fill: white;
       }
       #discord-icon:hover {
           fill: green;
       }
    ]]></style>
  </defs>
<path id="discord-icon" d="M27.1072 2.90467C25.0048 1.94213 22.7853 1.25926 20.5054 0.873528C20.1934 1.43125 19.9111 2.00506 19.6597 2.59258C17.2312 2.22662 14.7615 2.22662 12.333 2.59258C12.0814 2.00512 11.7991 1.43131 11.4873 0.873528C9.20592 1.26252 6.98494 1.94701 4.88039 2.90971C0.702316 9.09124 -0.430294 15.1192 0.136011 21.0617C2.58279 22.8695 5.32144 24.2443 8.23291 25.1265C8.88849 24.2448 9.46859 23.3093 9.96706 22.3302C9.02029 21.9766 8.10648 21.5403 7.23622 21.0264C7.46525 20.8603 7.68926 20.6892 7.90571 20.5231C10.438 21.7139 13.2018 22.3314 16.0001 22.3314C18.7984 22.3314 21.5622 21.7139 24.0945 20.5231C24.3135 20.7017 24.5375 20.8729 24.764 21.0264C23.892 21.5411 22.9766 21.9783 22.0281 22.3327C22.526 23.3114 23.1061 24.246 23.7622 25.1265C26.6762 24.2479 29.417 22.8737 31.8642 21.0642C32.5286 14.1729 30.7291 8.20025 27.1072 2.90467ZM10.6844 17.4071C9.10628 17.4071 7.80252 15.975 7.80252 14.2132C7.80252 12.4513 9.06098 11.0066 10.6793 11.0066C12.2977 11.0066 13.5914 12.4513 13.5637 14.2132C13.536 15.975 12.2927 17.4071 10.6844 17.4071ZM21.3158 17.4071C19.7352 17.4071 18.4365 15.975 18.4365 14.2132C18.4365 12.4513 19.6949 11.0066 21.3158 11.0066C22.9367 11.0066 24.2203 12.4513 24.1926 14.2132C24.165 15.975 22.9241 17.4071 21.3158 17.4071Z" />
</svg>
