<?xml version="1.0" standalone="no"?>
<!DOCTYPE svg PUBLIC "-//W3C//DTD SVG 20010904//EN"
 "http://www.w3.org/TR/2001/REC-SVG-20010904/DTD/svg10.dtd">
<svg version="1.0" xmlns="http://www.w3.org/2000/svg"
 width="512.000000pt" height="512.000000pt" viewBox="0 0 512.000000 512.000000"
 preserveAspectRatio="xMidYMid meet">
<metadata>
Created by potrace 1.14, written by Peter Selinger 2001-2017
</metadata>
<g transform="translate(0.000000,512.000000) scale(0.100000,-0.100000)"
fill="#000000" stroke="none">
<path d="M1280 4400 l0 -300 955 0 c525 0 955 -2 955 -5 0 -3 -312 -501 -694
-1107 -381 -607 -840 -1337 -1020 -1622 l-326 -520 0 -228 0 -228 1405 0 1405
0 0 305 0 305 -1014 0 -1014 0 377 597 c207 329 668 1060 1024 1624 l647 1027
0 226 0 226 -1350 0 -1350 0 0 -300z"/>
</g>
</svg>
