<svg width="18" height="19" viewBox="0 0 18 19" fill="none" xmlns="http://www.w3.org/2000/svg">
<path fill-rule="evenodd" clip-rule="evenodd" d="M11.2225 0.666748L10.1114 1.77786C9.92618 2.24082 9.66692 3.33341 10.1114 4.00008C10.4697 4.53763 11.2904 4.72843 11.9024 4.87071C12.2392 4.949 12.5127 5.0126 12.6113 5.11119C12.8891 5.38897 13.4447 5.94453 13.4447 6.77786C13.4447 7.1426 13.285 7.45413 13.1288 7.75903C12.928 8.15073 12.7329 8.53149 12.8891 9.00008C12.993 9.31183 12.9998 9.51424 13.0059 9.69821C13.0128 9.90766 13.019 10.0932 13.1669 10.389C13.136 10.6976 13.0949 10.9548 13.0537 11.212C12.9714 11.7264 12.8891 12.2408 12.8891 13.1667C12.8891 14.5556 14.5558 14.5556 14.5558 13.4445C14.5558 12.3334 14.5558 10.9445 15.1113 11.2223C15.3516 11.3424 15.436 11.6704 15.5218 12.004C15.6345 12.4417 15.7495 12.889 16.2224 12.889C17.0558 12.889 17.3336 12.3334 17.3336 11.7779V5.11119L12.8891 0.666748H11.2225ZM3.44466 8.44453L8.16688 13.4445H9.55577L12.3336 10.6667C11.2224 9.55564 11.778 7.61119 12.3336 7.05564C12.4214 6.79211 12.6113 5.94453 11.5002 5.94453C10.3891 5.94453 10.1113 5.66675 9.55577 5.11119C9.11133 4.66675 9.00022 3.44453 9.00022 2.88897L3.44466 8.44453ZM0.111328 11.7779L3.16688 8.7223L4.55577 10.389L2.88911 11.9167V13.1667L1.77799 14.2779H0.666884L0.111328 13.4445V11.7779ZM16.5002 18.4445C16.6536 18.4445 16.778 18.3202 16.778 18.1667C16.778 18.0133 16.6536 17.889 16.5002 17.889C16.3468 17.889 16.2224 18.0133 16.2224 18.1667C16.2224 18.3202 16.3468 18.4445 16.5002 18.4445ZM17.3336 15.389C17.3336 16.156 16.9605 16.7779 16.5002 16.7779C16.04 16.7779 15.6669 16.156 15.6669 15.389C15.6669 14.6219 16.04 14.0001 16.5002 14.0001C16.9605 14.0001 17.3336 14.6219 17.3336 15.389ZM13.7224 17.889C14.1827 17.889 14.5558 17.2671 14.5558 16.5001C14.5558 15.733 14.1827 15.1112 13.7224 15.1112C13.2622 15.1112 12.8891 15.733 12.8891 16.5001C12.8891 17.2671 13.2622 17.889 13.7224 17.889Z" fill="#CCEE25"/>
</svg>
